<mxfile host="app.diagrams.net" modified="2020-06-08T14:04:18.394Z" agent="5.0 (Windows NT 10.0; Win64; x64) AppleWebKit/537.36 (KHTML, like Gecko) Chrome/83.0.4103.97 Safari/537.36 Edg/83.0.478.45" etag="GMf0Na-t8EjESdIORD3X" version="13.1.14" type="github">
  <diagram id="C5RBs43oDa-KdzZeNtuy" name="Page-1">
    <mxGraphModel dx="1038" dy="548" grid="1" gridSize="10" guides="1" tooltips="1" connect="1" arrows="1" fold="1" page="1" pageScale="1" pageWidth="827" pageHeight="1169" math="0" shadow="0">
      <root>
        <mxCell id="WIyWlLk6GJQsqaUBKTNV-0" />
        <mxCell id="WIyWlLk6GJQsqaUBKTNV-1" parent="WIyWlLk6GJQsqaUBKTNV-0" />
        <mxCell id="d8bqbKpgY07EF2pSfLoR-34" style="edgeStyle=orthogonalEdgeStyle;rounded=0;orthogonalLoop=1;jettySize=auto;html=1;exitX=0.75;exitY=1;exitDx=0;exitDy=0;" edge="1" parent="WIyWlLk6GJQsqaUBKTNV-1" source="WIyWlLk6GJQsqaUBKTNV-3">
          <mxGeometry relative="1" as="geometry">
            <mxPoint x="329" y="140" as="targetPoint" />
          </mxGeometry>
        </mxCell>
        <mxCell id="d8bqbKpgY07EF2pSfLoR-35" style="edgeStyle=orthogonalEdgeStyle;rounded=0;orthogonalLoop=1;jettySize=auto;html=1;exitX=0.25;exitY=1;exitDx=0;exitDy=0;" edge="1" parent="WIyWlLk6GJQsqaUBKTNV-1" source="WIyWlLk6GJQsqaUBKTNV-3">
          <mxGeometry relative="1" as="geometry">
            <mxPoint x="185" y="140" as="targetPoint" />
          </mxGeometry>
        </mxCell>
        <mxCell id="WIyWlLk6GJQsqaUBKTNV-3" value="MDT数值模型" style="shape=process;whiteSpace=wrap;html=1;backgroundOutline=1;shadow=0;fontFamily=Helvetica;fontSize=12;fontColor=#000000;align=center;strokeColor=#000000;strokeWidth=1;fillColor=#ffffff;" parent="WIyWlLk6GJQsqaUBKTNV-1" vertex="1">
          <mxGeometry x="113" y="37" width="288" height="60" as="geometry" />
        </mxCell>
        <mxCell id="d8bqbKpgY07EF2pSfLoR-5" value="" style="edgeStyle=orthogonalEdgeStyle;rounded=0;orthogonalLoop=1;jettySize=auto;html=1;" edge="1" parent="WIyWlLk6GJQsqaUBKTNV-1" source="WIyWlLk6GJQsqaUBKTNV-6" target="d8bqbKpgY07EF2pSfLoR-4">
          <mxGeometry relative="1" as="geometry" />
        </mxCell>
        <mxCell id="WIyWlLk6GJQsqaUBKTNV-6" value="16参拉格朗日基函数" style="rounded=1;whiteSpace=wrap;html=1;shadow=0;fontFamily=Helvetica;fontSize=12;fontColor=#000000;align=center;strokeColor=#000000;strokeWidth=1;fillColor=#ffffff;" parent="WIyWlLk6GJQsqaUBKTNV-1" vertex="1">
          <mxGeometry x="130" y="140" width="110" height="80" as="geometry" />
        </mxCell>
        <mxCell id="d8bqbKpgY07EF2pSfLoR-9" value="" style="edgeStyle=orthogonalEdgeStyle;rounded=0;orthogonalLoop=1;jettySize=auto;html=1;" edge="1" parent="WIyWlLk6GJQsqaUBKTNV-1" source="d8bqbKpgY07EF2pSfLoR-4" target="d8bqbKpgY07EF2pSfLoR-8">
          <mxGeometry relative="1" as="geometry" />
        </mxCell>
        <mxCell id="d8bqbKpgY07EF2pSfLoR-4" value="构建观测方程" style="rounded=1;whiteSpace=wrap;html=1;shadow=0;fontFamily=Helvetica;fontSize=12;fontColor=#000000;align=center;strokeColor=#000000;strokeWidth=1;fillColor=#ffffff;" vertex="1" parent="WIyWlLk6GJQsqaUBKTNV-1">
          <mxGeometry x="130" y="260" width="110" height="80" as="geometry" />
        </mxCell>
        <mxCell id="d8bqbKpgY07EF2pSfLoR-13" value="" style="edgeStyle=orthogonalEdgeStyle;rounded=0;orthogonalLoop=1;jettySize=auto;html=1;" edge="1" parent="WIyWlLk6GJQsqaUBKTNV-1" source="d8bqbKpgY07EF2pSfLoR-8" target="d8bqbKpgY07EF2pSfLoR-12">
          <mxGeometry relative="1" as="geometry" />
        </mxCell>
        <mxCell id="d8bqbKpgY07EF2pSfLoR-8" value="病态性检查" style="rounded=1;whiteSpace=wrap;html=1;shadow=0;fontFamily=Helvetica;fontSize=12;fontColor=#000000;align=center;strokeColor=#000000;strokeWidth=1;fillColor=#ffffff;" vertex="1" parent="WIyWlLk6GJQsqaUBKTNV-1">
          <mxGeometry x="180" y="381" width="150" height="80" as="geometry" />
        </mxCell>
        <mxCell id="d8bqbKpgY07EF2pSfLoR-16" value="" style="edgeStyle=orthogonalEdgeStyle;rounded=0;orthogonalLoop=1;jettySize=auto;html=1;entryX=0.5;entryY=1;entryDx=0;entryDy=0;" edge="1" parent="WIyWlLk6GJQsqaUBKTNV-1" source="d8bqbKpgY07EF2pSfLoR-12" target="d8bqbKpgY07EF2pSfLoR-15">
          <mxGeometry relative="1" as="geometry">
            <mxPoint x="445" y="520" as="targetPoint" />
          </mxGeometry>
        </mxCell>
        <mxCell id="d8bqbKpgY07EF2pSfLoR-19" value="" style="edgeStyle=orthogonalEdgeStyle;rounded=0;orthogonalLoop=1;jettySize=auto;html=1;" edge="1" parent="WIyWlLk6GJQsqaUBKTNV-1" source="d8bqbKpgY07EF2pSfLoR-12" target="d8bqbKpgY07EF2pSfLoR-18">
          <mxGeometry relative="1" as="geometry" />
        </mxCell>
        <mxCell id="d8bqbKpgY07EF2pSfLoR-12" value="条件数&amp;lt;10-6?" style="rhombus;whiteSpace=wrap;html=1;shadow=0;fontFamily=Helvetica;fontSize=12;fontColor=#000000;align=center;strokeColor=#000000;strokeWidth=1;fillColor=#ffffff;" vertex="1" parent="WIyWlLk6GJQsqaUBKTNV-1">
          <mxGeometry x="180" y="500" width="150" height="120" as="geometry" />
        </mxCell>
        <mxCell id="d8bqbKpgY07EF2pSfLoR-23" value="" style="edgeStyle=orthogonalEdgeStyle;rounded=0;orthogonalLoop=1;jettySize=auto;html=1;" edge="1" parent="WIyWlLk6GJQsqaUBKTNV-1" source="d8bqbKpgY07EF2pSfLoR-18" target="d8bqbKpgY07EF2pSfLoR-22">
          <mxGeometry relative="1" as="geometry" />
        </mxCell>
        <mxCell id="d8bqbKpgY07EF2pSfLoR-25" value="" style="edgeStyle=orthogonalEdgeStyle;rounded=0;orthogonalLoop=1;jettySize=auto;html=1;" edge="1" parent="WIyWlLk6GJQsqaUBKTNV-1" source="d8bqbKpgY07EF2pSfLoR-18" target="d8bqbKpgY07EF2pSfLoR-24">
          <mxGeometry relative="1" as="geometry" />
        </mxCell>
        <mxCell id="d8bqbKpgY07EF2pSfLoR-18" value="加权迭代最小二乘" style="rounded=1;whiteSpace=wrap;html=1;shadow=0;fontFamily=Helvetica;fontSize=12;fontColor=#000000;align=center;strokeColor=#000000;strokeWidth=1;fillColor=#ffffff;" vertex="1" parent="WIyWlLk6GJQsqaUBKTNV-1">
          <mxGeometry x="200" y="656" width="110" height="80" as="geometry" />
        </mxCell>
        <mxCell id="d8bqbKpgY07EF2pSfLoR-28" value="" style="edgeStyle=orthogonalEdgeStyle;rounded=0;orthogonalLoop=1;jettySize=auto;html=1;" edge="1" parent="WIyWlLk6GJQsqaUBKTNV-1" source="d8bqbKpgY07EF2pSfLoR-24" target="d8bqbKpgY07EF2pSfLoR-27">
          <mxGeometry relative="1" as="geometry" />
        </mxCell>
        <mxCell id="d8bqbKpgY07EF2pSfLoR-24" value="后验误差信息" style="rounded=1;whiteSpace=wrap;html=1;shadow=0;fontFamily=Helvetica;fontSize=12;fontColor=#000000;align=center;strokeColor=#000000;strokeWidth=1;fillColor=#ffffff;" vertex="1" parent="WIyWlLk6GJQsqaUBKTNV-1">
          <mxGeometry x="327" y="756" width="110" height="80" as="geometry" />
        </mxCell>
        <mxCell id="d8bqbKpgY07EF2pSfLoR-30" value="" style="edgeStyle=orthogonalEdgeStyle;rounded=0;orthogonalLoop=1;jettySize=auto;html=1;" edge="1" parent="WIyWlLk6GJQsqaUBKTNV-1" source="d8bqbKpgY07EF2pSfLoR-27" target="d8bqbKpgY07EF2pSfLoR-29">
          <mxGeometry relative="1" as="geometry" />
        </mxCell>
        <mxCell id="d8bqbKpgY07EF2pSfLoR-27" value="内外符合精度评估" style="rounded=1;whiteSpace=wrap;html=1;shadow=0;fontFamily=Helvetica;fontSize=12;fontColor=#000000;align=center;strokeColor=#000000;strokeWidth=1;fillColor=#ffffff;" vertex="1" parent="WIyWlLk6GJQsqaUBKTNV-1">
          <mxGeometry x="200" y="846" width="110" height="80" as="geometry" />
        </mxCell>
        <mxCell id="d8bqbKpgY07EF2pSfLoR-29" value="结果输出" style="shape=parallelogram;perimeter=parallelogramPerimeter;whiteSpace=wrap;html=1;shadow=0;fontFamily=Helvetica;fontSize=12;fontColor=#000000;align=center;strokeColor=#000000;strokeWidth=1;fillColor=#ffffff;" vertex="1" parent="WIyWlLk6GJQsqaUBKTNV-1">
          <mxGeometry x="166" y="966" width="178" height="60" as="geometry" />
        </mxCell>
        <mxCell id="d8bqbKpgY07EF2pSfLoR-26" style="edgeStyle=orthogonalEdgeStyle;rounded=0;orthogonalLoop=1;jettySize=auto;html=1;entryX=0.5;entryY=0;entryDx=0;entryDy=0;" edge="1" parent="WIyWlLk6GJQsqaUBKTNV-1" source="d8bqbKpgY07EF2pSfLoR-22" target="d8bqbKpgY07EF2pSfLoR-27">
          <mxGeometry relative="1" as="geometry">
            <mxPoint x="257" y="886" as="targetPoint" />
          </mxGeometry>
        </mxCell>
        <mxCell id="d8bqbKpgY07EF2pSfLoR-22" value="参数化结果" style="rounded=1;whiteSpace=wrap;html=1;shadow=0;fontFamily=Helvetica;fontSize=12;fontColor=#000000;align=center;strokeColor=#000000;strokeWidth=1;fillColor=#ffffff;" vertex="1" parent="WIyWlLk6GJQsqaUBKTNV-1">
          <mxGeometry x="77" y="756" width="110" height="80" as="geometry" />
        </mxCell>
        <mxCell id="d8bqbKpgY07EF2pSfLoR-17" style="edgeStyle=orthogonalEdgeStyle;rounded=0;orthogonalLoop=1;jettySize=auto;html=1;entryX=1;entryY=0.5;entryDx=0;entryDy=0;exitX=0.5;exitY=0;exitDx=0;exitDy=0;" edge="1" parent="WIyWlLk6GJQsqaUBKTNV-1" source="d8bqbKpgY07EF2pSfLoR-15" target="d8bqbKpgY07EF2pSfLoR-8">
          <mxGeometry relative="1" as="geometry" />
        </mxCell>
        <mxCell id="d8bqbKpgY07EF2pSfLoR-15" value="吉洪诺夫正则化" style="rounded=1;whiteSpace=wrap;html=1;shadow=0;fontFamily=Helvetica;fontSize=12;fontColor=#000000;align=center;strokeColor=#000000;strokeWidth=1;fillColor=#ffffff;" vertex="1" parent="WIyWlLk6GJQsqaUBKTNV-1">
          <mxGeometry x="390" y="450" width="110" height="80" as="geometry" />
        </mxCell>
        <mxCell id="d8bqbKpgY07EF2pSfLoR-7" value="" style="edgeStyle=orthogonalEdgeStyle;rounded=0;orthogonalLoop=1;jettySize=auto;html=1;" edge="1" parent="WIyWlLk6GJQsqaUBKTNV-1" source="WIyWlLk6GJQsqaUBKTNV-7" target="d8bqbKpgY07EF2pSfLoR-6">
          <mxGeometry relative="1" as="geometry" />
        </mxCell>
        <mxCell id="WIyWlLk6GJQsqaUBKTNV-7" value="引入先验MDT误差信息" style="rounded=1;whiteSpace=wrap;html=1;fontSize=12;glass=0;strokeWidth=1;shadow=0;" parent="WIyWlLk6GJQsqaUBKTNV-1" vertex="1">
          <mxGeometry x="270" y="140" width="120" height="80" as="geometry" />
        </mxCell>
        <mxCell id="d8bqbKpgY07EF2pSfLoR-11" value="" style="edgeStyle=orthogonalEdgeStyle;rounded=0;orthogonalLoop=1;jettySize=auto;html=1;entryX=0.5;entryY=0;entryDx=0;entryDy=0;" edge="1" parent="WIyWlLk6GJQsqaUBKTNV-1" source="d8bqbKpgY07EF2pSfLoR-6" target="d8bqbKpgY07EF2pSfLoR-8">
          <mxGeometry relative="1" as="geometry">
            <mxPoint x="330" y="481" as="targetPoint" />
          </mxGeometry>
        </mxCell>
        <mxCell id="d8bqbKpgY07EF2pSfLoR-6" value="构建MDT误差模型" style="rounded=1;whiteSpace=wrap;html=1;fontSize=12;glass=0;strokeWidth=1;shadow=0;" vertex="1" parent="WIyWlLk6GJQsqaUBKTNV-1">
          <mxGeometry x="270" y="260" width="120" height="80" as="geometry" />
        </mxCell>
        <mxCell id="d8bqbKpgY07EF2pSfLoR-20" value="yes" style="text;html=1;strokeColor=none;fillColor=none;align=center;verticalAlign=middle;whiteSpace=wrap;rounded=0;" vertex="1" parent="WIyWlLk6GJQsqaUBKTNV-1">
          <mxGeometry x="320" y="540" width="40" height="20" as="geometry" />
        </mxCell>
        <mxCell id="d8bqbKpgY07EF2pSfLoR-21" value="no" style="text;html=1;align=center;verticalAlign=middle;resizable=0;points=[];autosize=1;" vertex="1" parent="WIyWlLk6GJQsqaUBKTNV-1">
          <mxGeometry x="220" y="610" width="30" height="20" as="geometry" />
        </mxCell>
      </root>
    </mxGraphModel>
  </diagram>
</mxfile>
